<svg id="Layer_1" data-name="Layer 1" xmlns="http://www.w3.org/2000/svg" viewBox="0 0 58.18 37.76"><defs><style>.cls-1{fill:#e7bd20;}.cls-2{fill:#363e44;}.cls-3{fill:#ffce06;}</style></defs><title>Vector Smart Object4</title><path class="cls-1" d="M38.51,37.75l-7.76-5a12.92,12.92,0,0,0,5.63-10.67,12.49,12.49,0,0,0-23.7-5.34,10.71,10.71,0,0,0-2.13-.21A10.81,10.81,0,0,0,0,27.31a10.38,10.38,0,0,0,3.72,8,9.21,9.21,0,0,0,6.35,2.54Z"/><path class="cls-2" d="M47.17,16.34,47.1,2.11A2.09,2.09,0,0,0,45,0L11.43,0A2.19,2.19,0,0,0,9.93.61,2.07,2.07,0,0,0,9.32,2.1L9.45,26a2.09,2.09,0,0,0,2.12,2.07l6.33,0,2-4.18-6.3,0L13.54,4.17l29.36,0"/><path class="cls-2" d="M10.61,26.52A2.81,2.81,0,0,0,13,28.1l8.08,0,1.84-3.77,0-.39,0-.07-9.54,0Z"/><path class="cls-2" d="M42.9,3.58l0,12.31L47.16,17,47.1,3.37a2.66,2.66,0,0,0-.24-1.08Z"/><path class="cls-3" d="M51.29,23.17A10.76,10.76,0,0,0,31,19.95a9.22,9.22,0,0,0-1.65-.15,9,9,0,0,0-9.08,9v0c0,.51,0,8.72-9.16,8.89v.07H50.8a7.3,7.3,0,0,0,.49-14.59Z"/></svg>